M48
;DRILL file {KiCad 201609280951+7255~55~ubuntu14.04.1-} date Mon Oct 17 05:03:12 2016
;FORMAT={-:-/ absolute / inch / decimal}
FMAT,2
INCH,TZ
T1C0.012
T2C0.024
T3C0.026
T4C0.031
T5C0.039
T6C0.059
T7C0.039
%
G90
G05
M72
T1
X4.4921Y-4.6772
X4.5118Y-4.4961
X4.6654Y-4.6142
X4.6929Y-3.89
X4.8543Y-4.5709
X4.8661Y-3.4882
X4.8898Y-4.6929
X4.9055Y-5.2126
X4.9764Y-4.9843
X5.1181Y-4.748
X5.1181Y-4.8071
X5.1181Y-4.9134
X5.1929Y-5.0197
X5.2087Y-4.4291
X5.3307Y-5.0591
X5.3307Y-5.2126
X5.3543Y-4.7402
X5.3701Y-3.4882
X5.5Y-4.748
X5.5157Y-4.3976
X5.5512Y-3.9096
X5.5906Y-4.748
X5.6575Y-4.9528
X5.6614Y-4.9331
X5.6772Y-4.9449
X5.7165Y-4.4921
T4
X4.7638Y-4.8228
X4.7638Y-4.9016
X4.7638Y-4.9803
T5
X4.439Y-4.813
X4.439Y-5.0689
X4.6161Y-4.813
X4.6161Y-5.0689
X5.1181Y-3.4508
X5.1181Y-5.2106
T6
X4.7638Y-4.7402
X4.7638Y-5.063
T7
X5.413Y-4.3488
X5.453Y-4.5488
X5.493Y-4.3488
T2
X5.7563Y-4.7845G85X5.7809Y-4.7721
G05
X5.9035Y-5.0784G85X5.9281Y-5.0661
G05
T3
X5.6938Y-4.9016G85X5.7009Y-4.8981
G05
X5.7723Y-5.0583G85X5.7793Y-5.0547
G05
T0
M30
