G04 #@! TF.FileFunction,Legend,Top*
%FSLAX46Y46*%
G04 Gerber Fmt 4.6, Leading zero omitted, Abs format (unit mm)*
G04 Created by KiCad (PCBNEW 201609280951+7255~55~ubuntu14.04.1-) date Wed Oct 12 05:15:32 2016*
%MOMM*%
%LPD*%
G01*
G04 APERTURE LIST*
%ADD10C,0.100000*%
%ADD11C,1.000000*%
%ADD12C,0.200000*%
%ADD13C,0.150000*%
%ADD14C,0.254000*%
%ADD15C,2.000000*%
%ADD16C,1.600000*%
%ADD17R,1.150000X1.450000*%
%ADD18R,1.450000X1.150000*%
%ADD19C,1.150000*%
%ADD20R,0.800000X1.700000*%
%ADD21C,0.400000*%
%ADD22C,1.000000*%
%ADD23C,1.800000*%
%ADD24C,1.575000*%
%ADD25R,0.950000X0.400000*%
%ADD26R,0.600000X1.000000*%
%ADD27C,0.787000*%
%ADD28R,1.350000X0.450000*%
G04 APERTURE END LIST*
D10*
D11*
X146000000Y-118500000D02*
X147000000Y-120500000D01*
X146000000Y-119000000D02*
X146000000Y-120500000D01*
X145500000Y-117000000D02*
X145000000Y-116500000D01*
X145500000Y-121000000D02*
X145500000Y-117000000D01*
X144500000Y-115500000D02*
X144500000Y-121500000D01*
X144000000Y-116000000D02*
X144000000Y-121500000D01*
X143500000Y-116500000D02*
X143500000Y-121500000D01*
X143000000Y-122000000D02*
X143000000Y-116500000D01*
X113500000Y-118500000D02*
X113500000Y-121000000D01*
X114500000Y-116500000D02*
X115000000Y-116000000D01*
X114500000Y-121500000D02*
X114500000Y-116500000D01*
X115500000Y-115500000D02*
X115500000Y-121500000D01*
X116500000Y-122000000D02*
X116500000Y-116000000D01*
X136500000Y-124000000D02*
X136500000Y-118500000D01*
X135500000Y-118500000D02*
X135500000Y-124000000D01*
X134500000Y-124500000D02*
X134500000Y-118500000D01*
X133500000Y-119000000D02*
X133500000Y-124500000D01*
X126500000Y-124500000D02*
X126500000Y-119000000D01*
X125500000Y-118500000D02*
X125500000Y-124000000D01*
X123500000Y-123500000D02*
X123500000Y-124000000D01*
X124500000Y-118500000D02*
X124500000Y-124000000D01*
X123500000Y-118500000D02*
X123500000Y-123500000D01*
X117500000Y-116500000D02*
X117500000Y-122500000D01*
X122500000Y-118000000D02*
X122500000Y-123500000D01*
X127500000Y-119000000D02*
X127500000Y-124000000D01*
X142500000Y-116500000D02*
X142500000Y-122500000D01*
X137500000Y-118000000D02*
X137500000Y-123500000D01*
X132500000Y-119000000D02*
X132500000Y-124500000D01*
X145000000Y-115000000D02*
X147500000Y-120500000D01*
X112500000Y-120500000D02*
X115000000Y-115000000D01*
X112500001Y-120500000D02*
G75*
G03X147500000Y-120500000I17499999J33500000D01*
G01*
X115000000Y-115000000D02*
G75*
G03X145000000Y-115000000I15000000J28000000D01*
G01*
X130000000Y-104000000D02*
X133000000Y-109000000D01*
X130000000Y-104000000D02*
X127000000Y-109000000D01*
X123500000Y-88500000D02*
X123500000Y-89500000D01*
X124500000Y-89000000D02*
X123500000Y-88500000D01*
X124000000Y-87000000D02*
X124500000Y-89000000D01*
X122000000Y-91000000D02*
X124000000Y-87000000D01*
X122500000Y-92000000D02*
X122000000Y-91000000D01*
X137000000Y-89500000D02*
X136000000Y-88500000D01*
X135000000Y-89000000D02*
X137000000Y-89500000D01*
X136000000Y-87000000D02*
X135000000Y-89000000D01*
X138000000Y-91000000D02*
X136000000Y-87000000D01*
X137500000Y-92000000D02*
X138000000Y-91000000D01*
X131500000Y-91500000D02*
X132000000Y-92000000D01*
X132500000Y-91500000D02*
X131500000Y-91500000D01*
X133000000Y-93500000D02*
X132500000Y-91500000D01*
X132500000Y-94000000D02*
X133000000Y-93500000D01*
X132500000Y-94500000D02*
X133500000Y-94000000D01*
X132000000Y-95000000D02*
X135000000Y-94000000D01*
X127000000Y-95000000D02*
X128000000Y-95000000D01*
X126000000Y-94500000D02*
X128000000Y-94500000D01*
X125500000Y-94000000D02*
X127500000Y-94000000D01*
X128000000Y-93500000D02*
X126500000Y-93500000D01*
X128000000Y-93000000D02*
X127000000Y-93000000D01*
X128000000Y-92500000D02*
X127500000Y-92500000D01*
X128500000Y-91500000D02*
X127500000Y-91500000D01*
X127061553Y-91500000D02*
G75*
G03X127061553Y-91500000I-2061553J0D01*
G01*
X137121320Y-91500000D02*
G75*
G03X137121320Y-91500000I-2121320J0D01*
G01*
X132000000Y-93500000D02*
G75*
G03X132000000Y-93500000I-2000000J0D01*
G01*
X136000000Y-85000000D02*
X139000000Y-91000000D01*
X121000000Y-91000000D02*
X124000000Y-85000000D01*
X121000000Y-91000000D02*
G75*
G03X139000000Y-91000000I9000000J6000000D01*
G01*
X124000000Y-85000000D02*
G75*
G03X136000000Y-85000000I6000000J0D01*
G01*
X138000000Y-104000000D02*
X138000000Y-103000000D01*
X137000000Y-103000000D02*
X138000000Y-104000000D01*
X138500000Y-102500000D02*
X137000000Y-103000000D01*
X138500000Y-106000000D02*
X138500000Y-102500000D01*
X136500000Y-103000000D02*
X138500000Y-106000000D01*
X134000000Y-104500000D02*
X133000000Y-105000000D01*
X133500000Y-106000000D02*
X134000000Y-104500000D01*
X131500000Y-104500000D02*
X133500000Y-106000000D01*
X134500000Y-104000000D02*
X131500000Y-104500000D01*
X134000000Y-107500000D02*
X134500000Y-104000000D01*
X131000000Y-104500000D02*
X134000000Y-107500000D01*
X128000000Y-105000000D02*
X127000000Y-105000000D01*
X127000000Y-106500000D02*
X128000000Y-105000000D01*
X126000000Y-104000000D02*
X127000000Y-106500000D01*
X129000000Y-104500000D02*
X126000000Y-104000000D01*
X126500000Y-107500000D02*
X129000000Y-104500000D01*
X125500000Y-103500000D02*
X126500000Y-107500000D01*
X123500000Y-103500000D02*
X123000000Y-104000000D01*
X123000000Y-103500000D02*
X123500000Y-103000000D01*
X122500000Y-102500000D02*
X123000000Y-103500000D01*
X122500000Y-105000000D02*
X122500000Y-102500000D01*
X122000000Y-102500000D02*
X122500000Y-105000000D01*
X121500000Y-106000000D02*
X122000000Y-102500000D01*
X121500000Y-102000000D02*
X121500000Y-106000000D01*
X118500000Y-103000000D02*
X120000000Y-101000000D01*
X141500000Y-103000000D02*
X140000000Y-101000000D01*
X143000000Y-105500000D02*
X140500000Y-100000000D01*
X117000000Y-105500000D02*
X119500000Y-100000000D01*
X139000000Y-101000000D02*
X143000000Y-105500000D01*
X139000000Y-107500000D02*
X139000000Y-101000000D01*
X135500000Y-103000000D02*
X139000000Y-107500000D01*
X134000000Y-109000000D02*
X135500000Y-103000000D01*
X130000000Y-104000000D02*
X134000000Y-109000000D01*
X121000000Y-101000000D02*
X117000000Y-105500000D01*
X121000000Y-107500000D02*
X121000000Y-101000000D01*
X124500000Y-103000000D02*
X121000000Y-107500000D01*
X126000000Y-109000000D02*
X124500000Y-103000000D01*
X130000000Y-104000000D02*
X126000000Y-109000000D01*
X117000000Y-105500000D02*
G75*
G03X143000000Y-105500000I13000000J18500000D01*
G01*
X119500000Y-100000000D02*
G75*
G03X140500000Y-100000000I10500000J12500000D01*
G01*
D12*
X116700000Y-125500000D02*
G75*
G03X116700000Y-125500000I-1700000J0D01*
G01*
X117900000Y-128400000D02*
X112100000Y-128400000D01*
X117900000Y-122600000D02*
X117900000Y-128400000D01*
X112100000Y-122600000D02*
X117900000Y-122600000D01*
X112100000Y-128400000D02*
X112100000Y-122600000D01*
X118950000Y-128700000D02*
X118950000Y-120300000D01*
X118950000Y-120300000D02*
X123050000Y-120300000D01*
X123050000Y-120300000D02*
X123050000Y-128700000D01*
X123050000Y-128700000D02*
X118950000Y-128700000D01*
X120000000Y-126500000D02*
X120000000Y-122500000D01*
X120000000Y-122500000D02*
X122000000Y-122500000D01*
X122000000Y-122500000D02*
X122000000Y-126500000D01*
X122000000Y-126500000D02*
X120000000Y-126500000D01*
D13*
X129875000Y-128050000D02*
X129875000Y-126950000D01*
X130125000Y-128050000D02*
X129875000Y-128050000D01*
X130125000Y-126950000D02*
X130125000Y-128050000D01*
X129875000Y-126950000D02*
X130125000Y-126950000D01*
X124125000Y-98550000D02*
X123875000Y-98550000D01*
X123875000Y-98550000D02*
X123875000Y-97450000D01*
X123875000Y-97450000D02*
X124125000Y-97450000D01*
X124125000Y-97450000D02*
X124125000Y-98550000D01*
X117625000Y-111950000D02*
X117625000Y-113050000D01*
X117375000Y-111950000D02*
X117625000Y-111950000D01*
X117375000Y-113050000D02*
X117375000Y-111950000D01*
X117625000Y-113050000D02*
X117375000Y-113050000D01*
X124125000Y-96550000D02*
X123875000Y-96550000D01*
X123875000Y-96550000D02*
X123875000Y-95450000D01*
X123875000Y-95450000D02*
X124125000Y-95450000D01*
X124125000Y-95450000D02*
X124125000Y-96550000D01*
X124125000Y-93450000D02*
X124125000Y-94550000D01*
X123875000Y-93450000D02*
X124125000Y-93450000D01*
X123875000Y-94550000D02*
X123875000Y-93450000D01*
X124125000Y-94550000D02*
X123875000Y-94550000D01*
X142375000Y-111950000D02*
X142625000Y-111950000D01*
X142625000Y-111950000D02*
X142625000Y-113050000D01*
X142625000Y-113050000D02*
X142375000Y-113050000D01*
X142375000Y-113050000D02*
X142375000Y-111950000D01*
X135875000Y-94550000D02*
X135875000Y-93450000D01*
X136125000Y-94550000D02*
X135875000Y-94550000D01*
X136125000Y-93450000D02*
X136125000Y-94550000D01*
X135875000Y-93450000D02*
X136125000Y-93450000D01*
X135875000Y-95450000D02*
X136125000Y-95450000D01*
X136125000Y-95450000D02*
X136125000Y-96550000D01*
X136125000Y-96550000D02*
X135875000Y-96550000D01*
X135875000Y-96550000D02*
X135875000Y-95450000D01*
X135875000Y-98550000D02*
X135875000Y-97450000D01*
X136125000Y-98550000D02*
X135875000Y-98550000D01*
X136125000Y-97450000D02*
X136125000Y-98550000D01*
X135875000Y-97450000D02*
X136125000Y-97450000D01*
X130125000Y-130050000D02*
X129875000Y-130050000D01*
X129875000Y-130050000D02*
X129875000Y-128950000D01*
X129875000Y-128950000D02*
X130125000Y-128950000D01*
X130125000Y-128950000D02*
X130125000Y-130050000D01*
X115125000Y-119450000D02*
X115125000Y-120550000D01*
X114875000Y-119450000D02*
X115125000Y-119450000D01*
X114875000Y-120550000D02*
X114875000Y-119450000D01*
X115125000Y-120550000D02*
X114875000Y-120550000D01*
X125375000Y-124950000D02*
X125625000Y-124950000D01*
X125625000Y-124950000D02*
X125625000Y-126050000D01*
X125625000Y-126050000D02*
X125375000Y-126050000D01*
X125375000Y-126050000D02*
X125375000Y-124950000D01*
X134375000Y-128050000D02*
X134375000Y-126950000D01*
X134625000Y-128050000D02*
X134375000Y-128050000D01*
X134625000Y-126950000D02*
X134625000Y-128050000D01*
X134375000Y-126950000D02*
X134625000Y-126950000D01*
X134375000Y-132950000D02*
X134625000Y-132950000D01*
X134625000Y-132950000D02*
X134625000Y-134050000D01*
X134625000Y-134050000D02*
X134375000Y-134050000D01*
X134375000Y-134050000D02*
X134375000Y-132950000D01*
X125625000Y-132950000D02*
X125625000Y-134050000D01*
X125375000Y-132950000D02*
X125625000Y-132950000D01*
X125375000Y-134050000D02*
X125375000Y-132950000D01*
X125625000Y-134050000D02*
X125375000Y-134050000D01*
X125050000Y-116875000D02*
X125050000Y-117125000D01*
X125050000Y-117125000D02*
X123950000Y-117125000D01*
X123950000Y-117125000D02*
X123950000Y-116875000D01*
X123950000Y-116875000D02*
X125050000Y-116875000D01*
X137550000Y-119625000D02*
X136450000Y-119625000D01*
X137550000Y-119375000D02*
X137550000Y-119625000D01*
X136450000Y-119375000D02*
X137550000Y-119375000D01*
X136450000Y-119625000D02*
X136450000Y-119375000D01*
X134450000Y-119625000D02*
X134450000Y-119375000D01*
X134450000Y-119375000D02*
X135550000Y-119375000D01*
X135550000Y-119375000D02*
X135550000Y-119625000D01*
X135550000Y-119625000D02*
X134450000Y-119625000D01*
X118064185Y-97641963D02*
X119047755Y-98134498D01*
X118444030Y-98111769D02*
X119047755Y-98134498D01*
X118444030Y-98111769D02*
X118064185Y-97641963D01*
X139555970Y-98611769D02*
X138952245Y-98634498D01*
X139555970Y-98611769D02*
X139935815Y-98141963D01*
X138952245Y-98634498D02*
X139935815Y-98141963D01*
X140952245Y-98134498D02*
X141935815Y-97641963D01*
X141555970Y-98111769D02*
X141935815Y-97641963D01*
X141555970Y-98111769D02*
X140952245Y-98134498D01*
X135088388Y-89911612D02*
X135300520Y-90477297D01*
X135088388Y-89911612D02*
X134522703Y-89699480D01*
X135300520Y-90477297D02*
X134522703Y-89699480D01*
X145452245Y-113134498D02*
X146435815Y-112641963D01*
X146055970Y-113111769D02*
X146435815Y-112641963D01*
X146055970Y-113111769D02*
X145452245Y-113134498D01*
X120444030Y-98611769D02*
X120064185Y-98141963D01*
X120444030Y-98611769D02*
X121047755Y-98634498D01*
X120064185Y-98141963D02*
X121047755Y-98634498D01*
X113564185Y-112641963D02*
X114547755Y-113134498D01*
X113944030Y-113111769D02*
X114547755Y-113134498D01*
X113944030Y-113111769D02*
X113564185Y-112641963D01*
X124911612Y-89911612D02*
X125477297Y-89699480D01*
X124911612Y-89911612D02*
X124699480Y-90477297D01*
X125477297Y-89699480D02*
X124699480Y-90477297D01*
X125650000Y-131725000D02*
X125350000Y-131725000D01*
X125350000Y-131725000D02*
X125350000Y-130275000D01*
X125350000Y-130275000D02*
X125650000Y-130275000D01*
X125650000Y-130275000D02*
X125650000Y-131725000D01*
X147544940Y-129664340D02*
X149065002Y-128903150D01*
X147186732Y-128949017D02*
X147544940Y-129664340D01*
X144231523Y-123047599D02*
X144612118Y-123807630D01*
X145751585Y-122286408D02*
X144231523Y-123047599D01*
X125375000Y-128650000D02*
X125375000Y-128650000D01*
X125375000Y-128650000D02*
X125375000Y-127350000D01*
X125375000Y-127350000D02*
X125625000Y-127350000D01*
X125625000Y-127350000D02*
X125625000Y-128400000D01*
X125625000Y-128400000D02*
X125375000Y-128650000D01*
X135450000Y-130650000D02*
X135450000Y-130650000D01*
X135450000Y-130650000D02*
X133550000Y-130650000D01*
X133550000Y-130650000D02*
X133550000Y-130350000D01*
X133550000Y-130350000D02*
X135150000Y-130350000D01*
X135150000Y-130350000D02*
X135450000Y-130650000D01*
X128900000Y-115575000D02*
X131700000Y-115575000D01*
X131700000Y-115575000D02*
X131700000Y-121425000D01*
X131700000Y-121425000D02*
X128300000Y-121425000D01*
X128300000Y-121425000D02*
X128300000Y-116175000D01*
X128300000Y-116175000D02*
X128900000Y-115575000D01*
D14*
G36*
X136373000Y-134873000D02*
X123627000Y-134873000D01*
X123627000Y-130127000D01*
X136373000Y-130127000D01*
X136373000Y-134873000D01*
X136373000Y-134873000D01*
G37*
X136373000Y-134873000D02*
X123627000Y-134873000D01*
X123627000Y-130127000D01*
X136373000Y-130127000D01*
X136373000Y-134873000D01*
%LPC*%
D12*
X130100000Y-93500000D02*
G75*
G03X130100000Y-93500000I-100000J0D01*
G01*
X130300000Y-93500000D02*
G75*
G03X130300000Y-93500000I-300000J0D01*
G01*
X130452769Y-93500000D02*
G75*
G03X130452769Y-93500000I-452769J0D01*
G01*
X130600000Y-93500000D02*
G75*
G03X130600000Y-93500000I-600000J0D01*
G01*
X130800000Y-93500000D02*
G75*
G03X130800000Y-93500000I-800000J0D01*
G01*
X130950000Y-93500000D02*
G75*
G03X130950000Y-93500000I-950000J0D01*
G01*
X131100000Y-93500000D02*
G75*
G03X131100000Y-93500000I-1100000J0D01*
G01*
X131250000Y-93500000D02*
G75*
G03X131250000Y-93500000I-1250000J0D01*
G01*
X131408013Y-93500000D02*
G75*
G03X131408013Y-93500000I-1408013J0D01*
G01*
D15*
X112750000Y-128750000D03*
X117250000Y-128750000D03*
X117250000Y-122250000D03*
X112750000Y-122250000D03*
X130000000Y-87650000D03*
X130000000Y-132350000D03*
D16*
X121000000Y-124500000D03*
X121000000Y-126500000D03*
X121000000Y-122500000D03*
D15*
X121000000Y-120400000D03*
X121000000Y-128600000D03*
D17*
X130900000Y-127500000D03*
X129100000Y-127500000D03*
X124900000Y-98000000D03*
X123100000Y-98000000D03*
X116600000Y-112500000D03*
X118400000Y-112500000D03*
X124900000Y-96000000D03*
X123100000Y-96000000D03*
X123100000Y-94000000D03*
X124900000Y-94000000D03*
X141600000Y-112500000D03*
X143400000Y-112500000D03*
X136900000Y-94000000D03*
X135100000Y-94000000D03*
X135100000Y-96000000D03*
X136900000Y-96000000D03*
X136900000Y-98000000D03*
X135100000Y-98000000D03*
X130900000Y-129500000D03*
X129100000Y-129500000D03*
X114100000Y-120000000D03*
X115900000Y-120000000D03*
X124600000Y-125500000D03*
X126400000Y-125500000D03*
X135400000Y-127500000D03*
X133600000Y-127500000D03*
X133600000Y-133500000D03*
X135400000Y-133500000D03*
X124600000Y-133500000D03*
X126400000Y-133500000D03*
D18*
X124500000Y-116100000D03*
X124500000Y-117900000D03*
X137000000Y-118600000D03*
X137000000Y-120400000D03*
X135000000Y-120400000D03*
X135000000Y-118600000D03*
D19*
X118902983Y-97195261D03*
D10*
G36*
X119293783Y-98034025D02*
X117997260Y-97384774D01*
X118512183Y-96356497D01*
X119808706Y-97005748D01*
X119293783Y-98034025D01*
X119293783Y-98034025D01*
G37*
D19*
X118097017Y-98804739D03*
D10*
G36*
X118487817Y-99643503D02*
X117191294Y-98994252D01*
X117706217Y-97965975D01*
X119002740Y-98615226D01*
X118487817Y-99643503D01*
X118487817Y-99643503D01*
G37*
D19*
X139902983Y-99304739D03*
D10*
G36*
X140808706Y-99494252D02*
X139512183Y-100143503D01*
X138997260Y-99115226D01*
X140293783Y-98465975D01*
X140808706Y-99494252D01*
X140808706Y-99494252D01*
G37*
D19*
X139097017Y-97695261D03*
D10*
G36*
X140002740Y-97884774D02*
X138706217Y-98534025D01*
X138191294Y-97505748D01*
X139487817Y-96856497D01*
X140002740Y-97884774D01*
X140002740Y-97884774D01*
G37*
D19*
X141097017Y-97195261D03*
D10*
G36*
X142002740Y-97384774D02*
X140706217Y-98034025D01*
X140191294Y-97005748D01*
X141487817Y-96356497D01*
X142002740Y-97384774D01*
X142002740Y-97384774D01*
G37*
D19*
X141902983Y-98804739D03*
D10*
G36*
X142808706Y-98994252D02*
X141512183Y-99643503D01*
X140997260Y-98615226D01*
X142293783Y-97965975D01*
X142808706Y-98994252D01*
X142808706Y-98994252D01*
G37*
D19*
X135636396Y-89363604D03*
D10*
G36*
X135530330Y-88444365D02*
X136555635Y-89469670D01*
X135742462Y-90282843D01*
X134717157Y-89257538D01*
X135530330Y-88444365D01*
X135530330Y-88444365D01*
G37*
D19*
X134363604Y-90636396D03*
D10*
G36*
X134257538Y-89717157D02*
X135282843Y-90742462D01*
X134469670Y-91555635D01*
X133444365Y-90530330D01*
X134257538Y-89717157D01*
X134257538Y-89717157D01*
G37*
D19*
X145597017Y-112195261D03*
D10*
G36*
X146502740Y-112384774D02*
X145206217Y-113034025D01*
X144691294Y-112005748D01*
X145987817Y-111356497D01*
X146502740Y-112384774D01*
X146502740Y-112384774D01*
G37*
D19*
X146402983Y-113804739D03*
D10*
G36*
X147308706Y-113994252D02*
X146012183Y-114643503D01*
X145497260Y-113615226D01*
X146793783Y-112965975D01*
X147308706Y-113994252D01*
X147308706Y-113994252D01*
G37*
D19*
X120097017Y-99304739D03*
D10*
G36*
X120487817Y-100143503D02*
X119191294Y-99494252D01*
X119706217Y-98465975D01*
X121002740Y-99115226D01*
X120487817Y-100143503D01*
X120487817Y-100143503D01*
G37*
D19*
X120902983Y-97695261D03*
D10*
G36*
X121293783Y-98534025D02*
X119997260Y-97884774D01*
X120512183Y-96856497D01*
X121808706Y-97505748D01*
X121293783Y-98534025D01*
X121293783Y-98534025D01*
G37*
D19*
X114402983Y-112195261D03*
D10*
G36*
X114793783Y-113034025D02*
X113497260Y-112384774D01*
X114012183Y-111356497D01*
X115308706Y-112005748D01*
X114793783Y-113034025D01*
X114793783Y-113034025D01*
G37*
D19*
X113597017Y-113804739D03*
D10*
G36*
X113987817Y-114643503D02*
X112691294Y-113994252D01*
X113206217Y-112965975D01*
X114502740Y-113615226D01*
X113987817Y-114643503D01*
X113987817Y-114643503D01*
G37*
D19*
X124363604Y-89363604D03*
D10*
G36*
X123444365Y-89469670D02*
X124469670Y-88444365D01*
X125282843Y-89257538D01*
X124257538Y-90282843D01*
X123444365Y-89469670D01*
X123444365Y-89469670D01*
G37*
D19*
X125636396Y-90636396D03*
D10*
G36*
X124717157Y-90742462D02*
X125742462Y-89717157D01*
X126555635Y-90530330D01*
X125530330Y-91555635D01*
X124717157Y-90742462D01*
X124717157Y-90742462D01*
G37*
D20*
X126250000Y-131000000D03*
X124750000Y-131000000D03*
D21*
X146000000Y-126300000D03*
D10*
G36*
X146693106Y-126176593D02*
X145485998Y-126781068D01*
X145306894Y-126423407D01*
X146514002Y-125818932D01*
X146693106Y-126176593D01*
X146693106Y-126176593D01*
G37*
D21*
X145708957Y-125718799D03*
D10*
G36*
X146402063Y-125595392D02*
X145194955Y-126199867D01*
X145015851Y-125842206D01*
X146222959Y-125237731D01*
X146402063Y-125595392D01*
X146402063Y-125595392D01*
G37*
D21*
X146291044Y-126881200D03*
D10*
G36*
X146984150Y-126757793D02*
X145777042Y-127362268D01*
X145597938Y-127004607D01*
X146805046Y-126400132D01*
X146984150Y-126757793D01*
X146984150Y-126757793D01*
G37*
D21*
X146582087Y-127462400D03*
D10*
G36*
X147275193Y-127338993D02*
X146068085Y-127943468D01*
X145888981Y-127585807D01*
X147096089Y-126981332D01*
X147275193Y-127338993D01*
X147275193Y-127338993D01*
G37*
D21*
X145417914Y-125137599D03*
D10*
G36*
X146111020Y-125014192D02*
X144903912Y-125618667D01*
X144724808Y-125261006D01*
X145931916Y-124656531D01*
X146111020Y-125014192D01*
X146111020Y-125014192D01*
G37*
D22*
X144713136Y-124456028D03*
D11*
X144601367Y-124511998D02*
X144824905Y-124400058D01*
D22*
X146705664Y-128435014D03*
D11*
X146593895Y-128490984D02*
X146817433Y-128379044D01*
D23*
X147876940Y-124073967D03*
D10*
G36*
X149129370Y-124453335D02*
X147430477Y-125304077D01*
X146624510Y-123694599D01*
X148323403Y-122843857D01*
X149129370Y-124453335D01*
X149129370Y-124453335D01*
G37*
D23*
X148906786Y-126130521D03*
D10*
G36*
X150159216Y-126509889D02*
X148460323Y-127360631D01*
X147654356Y-125751153D01*
X149353249Y-124900411D01*
X150159216Y-126509889D01*
X150159216Y-126509889D01*
G37*
D24*
X146875079Y-122073297D03*
D10*
G36*
X148077136Y-122352072D02*
X146378243Y-123202815D01*
X145673022Y-121794522D01*
X147371915Y-120943779D01*
X148077136Y-122352072D01*
X148077136Y-122352072D01*
G37*
D22*
X146522469Y-121369150D03*
D11*
X146120100Y-121570642D02*
X146924838Y-121167658D01*
D24*
X149908647Y-128131191D03*
D10*
G36*
X151110704Y-128409966D02*
X149411811Y-129260709D01*
X148706590Y-127852416D01*
X150405483Y-127001673D01*
X151110704Y-128409966D01*
X151110704Y-128409966D01*
G37*
D22*
X150261257Y-128835338D03*
D11*
X149858888Y-129036830D02*
X150663626Y-128633846D01*
D25*
X126600000Y-128650000D03*
X126600000Y-128000000D03*
X126600000Y-127350000D03*
X124400000Y-127350000D03*
X124400000Y-128000000D03*
X124400000Y-128650000D03*
D26*
X135450000Y-129350000D03*
X133550000Y-129350000D03*
X134500000Y-131650000D03*
D27*
X139140000Y-114270000D03*
X137870000Y-114270000D03*
X139140000Y-113000000D03*
X137870000Y-113000000D03*
X139140000Y-111730000D03*
X137870000Y-111730000D03*
D22*
X138505000Y-115540000D03*
X139521000Y-110460000D03*
X137489000Y-110460000D03*
D28*
X127125000Y-115575000D03*
X127125000Y-116225000D03*
X127125000Y-116875000D03*
X127125000Y-117525000D03*
X127125000Y-118175000D03*
X127125000Y-118825000D03*
X127125000Y-119475000D03*
X127125000Y-120125000D03*
X127125000Y-120775000D03*
X127125000Y-121425000D03*
X132875000Y-121425000D03*
X132875000Y-120775000D03*
X132875000Y-120125000D03*
X132875000Y-119475000D03*
X132875000Y-118825000D03*
X132875000Y-118175000D03*
X132875000Y-117525000D03*
X132875000Y-116875000D03*
X132875000Y-116225000D03*
X132875000Y-115575000D03*
D10*
G36*
X120450000Y-106912250D02*
X117877122Y-105387582D01*
X120450000Y-102433536D01*
X120450000Y-106912250D01*
X120450000Y-106912250D01*
G37*
X120450000Y-106912250D02*
X117877122Y-105387582D01*
X120450000Y-102433536D01*
X120450000Y-106912250D01*
G36*
X125330744Y-108527247D02*
X121783786Y-107472746D01*
X124276243Y-104213379D01*
X125330744Y-108527247D01*
X125330744Y-108527247D01*
G37*
X125330744Y-108527247D02*
X121783786Y-107472746D01*
X124276243Y-104213379D01*
X125330744Y-108527247D01*
G36*
X138266090Y-107423434D02*
X134670497Y-108526083D01*
X135773145Y-104211371D01*
X138266090Y-107423434D01*
X138266090Y-107423434D01*
G37*
X138266090Y-107423434D02*
X134670497Y-108526083D01*
X135773145Y-104211371D01*
X138266090Y-107423434D01*
G36*
X142171049Y-105387104D02*
X139550000Y-106864422D01*
X139550000Y-102480122D01*
X142171049Y-105387104D01*
X142171049Y-105387104D01*
G37*
X142171049Y-105387104D02*
X139550000Y-106864422D01*
X139550000Y-102480122D01*
X142171049Y-105387104D01*
M02*
